<?xml version="1.0" encoding="UTF-8" standalone="no"?>
<svg
   xmlns:dc="http://purl.org/dc/elements/1.1/"
   xmlns:cc="http://creativecommons.org/ns#"
   xmlns:rdf="http://www.w3.org/1999/02/22-rdf-syntax-ns#"
   xmlns:svg="http://www.w3.org/2000/svg"
   xmlns="http://www.w3.org/2000/svg"
   xmlns:sodipodi="http://sodipodi.sourceforge.net/DTD/sodipodi-0.dtd"
   xmlns:inkscape="http://www.inkscape.org/namespaces/inkscape"
   width="1122.5197"
   height="793.70081"
   version="1.1"
   id="svg48"
   sodipodi:docname="shield_final_2.svg"
   inkscape:version="1.0beta1 (32d4812, 2019-09-19)">
  <metadata
     id="metadata52">
    <rdf:RDF>
      <cc:Work
         rdf:about="">
        <dc:format>image/svg+xml</dc:format>
        <dc:type
           rdf:resource="http://purl.org/dc/dcmitype/StillImage" />
        <dc:title />
      </cc:Work>
    </rdf:RDF>
  </metadata>
  <sodipodi:namedview
     pagecolor="#ffffff"
     bordercolor="#666666"
     inkscape:document-rotation="0"
     borderopacity="1"
     objecttolerance="10"
     gridtolerance="10"
     guidetolerance="10"
     inkscape:pageopacity="0"
     inkscape:pageshadow="2"
     inkscape:window-width="1600"
     inkscape:window-height="907"
     id="namedview50"
     showgrid="false"
     showguides="false"
     inkscape:zoom="0.35"
     inkscape:cx="400"
     inkscape:cy="560"
     inkscape:window-x="0"
     inkscape:window-y="23"
     inkscape:window-maximized="0"
     inkscape:current-layer="g30" />
  <desc
     id="desc10">/Users/asola/Downloads/shield_final.dxf - scale = 1.000000, origin = (0.000000, 0.000000), method = manual</desc>
  <defs
     id="defs24">
    <marker
       id="DistanceX"
       orient="auto"
       refX="0"
       refY="0"
       style="overflow:visible">
      <path
         d="M 3,-3 -3,3 M 0,-5 V 5"
         style="stroke:#000000;stroke-width:0.5"
         id="path12"
         inkscape:connector-curvature="0" />
    </marker>
    <pattern
       id="Hatch"
       patternUnits="userSpaceOnUse"
       width="8"
       height="8"
       x="0"
       y="0">
      <path
         d="M8 4 l-4,4"
         stroke="#000000"
         stroke-width="0.25"
         linecap="square"
         id="path15" />
      <path
         d="M6 2 l-4,4"
         stroke="#000000"
         stroke-width="0.25"
         linecap="square"
         id="path17" />
      <path
         d="M4 0 l-4,4"
         stroke="#000000"
         stroke-width="0.25"
         linecap="square"
         id="path19" />
    </pattern>
    <symbol
       id="*MODEL_SPACE" />
    <symbol
       id="*PAPER_SPACE" />
  </defs>
  <g
     inkscape:groupmode="layer"
     inkscape:label="0"
     id="g26" />
  <g
     inkscape:groupmode="layer"
     inkscape:label="OUTER_PROFILES"
     id="g30" />
  <g
     inkscape:groupmode="layer"
     inkscape:label="INTERIOR_PROFILES"
     id="g46">
    <path
       d="m 736.38708,35.55877 h 7.55905 a 9.44882,9.44882 0 0 0 0,-18.89764 h -7.55905 a 9.44882,9.44882 0 0 0 0,18.89764 z"
       style="fill:#0000ff;stroke:#000000"
       id="path32"
       inkscape:connector-curvature="0" />
    <path
       d="m 396.2296,36.50365 h 7.55905 a 10.393701,10.393701 0 0 0 0,-20.7874 h -7.55905 a 10.393701,10.393701 0 0 0 0,20.7874 z"
       style="fill:#0000ff;stroke:#000000"
       id="path34"
       inkscape:connector-curvature="0" />
    <path
       d="m 161.84477,773.1181 a 10.393701,10.393701 0 0 0 0,-20.7874 h -7.55906 a 10.393701,10.393701 0 0 0 0,20.7874 z"
       style="fill:#0000ff;stroke:#000000"
       id="path36"
       inkscape:connector-curvature="0" />
    <path
       d="m 687.1977,773.1181 a 10.393701,10.393701 0 0 0 0,-20.7874 h -7.55905 a 10.393701,10.393701 0 0 0 0,20.7874 z"
       style="fill:#0000ff;stroke:#000000"
       id="path38"
       inkscape:connector-curvature="0" />
    <path
       d="m 452.86839,773.1181 h 7.55905 a 10.393701,10.393701 0 0 0 0,-20.7874 h -7.55905 a 10.393701,10.393701 0 0 0 0,20.7874 z"
       style="fill:#0000ff;stroke:#000000"
       id="path40"
       inkscape:connector-curvature="0" />
    <path
       d="m 985.78038,752.3307 h -7.55905 a 10.393701,10.393701 0 0 0 0,20.7874 h 7.55905 a 10.393701,10.393701 0 0 0 0,-20.7874 z"
       style="fill:#0000ff;stroke:#000000"
       id="path42"
       inkscape:connector-curvature="0" />
    <path
       d="m 580.48157,26.10995 a 10.393705,10.393705 0 1 0 -20.78741,0 10.393705,10.393705 0 1 0 20.78741,0 z"
       style="fill:#0000ff;stroke:#000000"
       id="path44"
       inkscape:connector-curvature="0" />
  </g>
</svg>
